<svg width="13" height="12" viewBox="0 0 13 12" fill="none" xmlns="http://www.w3.org/2000/svg">
<path d="M6.02447 0.463551C6.17415 0.00289583 6.82585 0.00289762 6.97553 0.463552L8.0716 3.8369C8.13854 4.04291 8.33051 4.18239 8.54713 4.18239L12.0941 4.18239C12.5784 4.18239 12.7798 4.8022 12.388 5.0869L9.51843 7.17174C9.34318 7.29906 9.26985 7.52475 9.33679 7.73076L10.4329 11.1041C10.5825 11.5648 10.0553 11.9478 9.66344 11.6631L6.79389 9.57828C6.61865 9.45096 6.38135 9.45096 6.20611 9.57828L3.33656 11.6631C2.9447 11.9478 2.41746 11.5648 2.56714 11.1041L3.66321 7.73076C3.73015 7.52475 3.65682 7.29906 3.48157 7.17174L0.612028 5.0869C0.22017 4.8022 0.421558 4.18239 0.90592 4.18239L4.45287 4.18239C4.66949 4.18239 4.86146 4.04291 4.9284 3.8369L6.02447 0.463551Z" fill="#FFDE6A"/>
</svg>
