<svg width="14" height="13" viewBox="0 0 14 13" fill="none" xmlns="http://www.w3.org/2000/svg">
<path d="M6.52447 0.46346C6.67415 0.00280547 7.32585 0.00280619 7.47553 0.463461L8.68386 4.1823C8.75079 4.38831 8.94277 4.52779 9.15938 4.52779H13.0696C13.554 4.52779 13.7554 5.1476 13.3635 5.4323L10.2001 7.73067C10.0248 7.85799 9.95149 8.08367 10.0184 8.28969L11.2268 12.0085C11.3764 12.4692 10.8492 12.8522 10.4573 12.5675L7.29389 10.2692C7.11865 10.1418 6.88135 10.1418 6.70611 10.2692L3.54267 12.5675C3.15081 12.8522 2.62357 12.4692 2.77325 12.0085L3.98157 8.28968C4.04851 8.08367 3.97518 7.85799 3.79994 7.73067L0.636501 5.4323C0.244644 5.1476 0.44603 4.52779 0.930392 4.52779H4.84062C5.05723 4.52779 5.24921 4.38831 5.31614 4.1823L6.52447 0.46346Z" fill="#FFDE6A"/>
</svg>
