<svg width="16" height="16" viewBox="0 0 16 16" fill="none" xmlns="http://www.w3.org/2000/svg">
<g id="Star">
<path id="Star_2" d="M7.52447 1.46346C7.67415 1.00281 8.32585 1.00281 8.47553 1.46346L9.68386 5.1823C9.75079 5.38831 9.94277 5.52779 10.1594 5.52779H14.0696C14.554 5.52779 14.7554 6.1476 14.3635 6.4323L11.2001 8.73067C11.0248 8.85799 10.9515 9.08367 11.0184 9.28969L12.2268 13.0085C12.3764 13.4692 11.8492 13.8522 11.4573 13.5675L8.29389 11.2692C8.11865 11.1418 7.88135 11.1418 7.70611 11.2692L4.54267 13.5675C4.15081 13.8522 3.62357 13.4692 3.77325 13.0085L4.98157 9.28968C5.04851 9.08367 4.97518 8.85799 4.79994 8.73067L1.6365 6.4323C1.24464 6.1476 1.44603 5.52779 1.93039 5.52779H5.84062C6.05723 5.52779 6.24921 5.38831 6.31614 5.1823L7.52447 1.46346Z" fill="#E5E5E5"/>
</g>
</svg>
