<svg width="14" height="13" viewBox="0 0 14 13" fill="none" xmlns="http://www.w3.org/2000/svg">
<path d="M6.52447 0.463399C6.67415 0.00274444 7.32585 0.00274515 7.47553 0.4634L8.68386 4.18224C8.75079 4.38825 8.94277 4.52773 9.15938 4.52773H13.0696C13.554 4.52773 13.7554 5.14754 13.3635 5.43224L10.2001 7.73061C10.0248 7.85793 9.95149 8.08361 10.0184 8.28962L11.2268 12.0085C11.3764 12.4691 10.8492 12.8522 10.4573 12.5675L7.29389 10.2691C7.11865 10.1418 6.88135 10.1418 6.70611 10.2691L3.54267 12.5675C3.15081 12.8522 2.62357 12.4691 2.77325 12.0085L3.98157 8.28962C4.04851 8.08361 3.97518 7.85793 3.79994 7.73061L0.636501 5.43224C0.244644 5.14754 0.44603 4.52773 0.930392 4.52773H4.84062C5.05723 4.52773 5.24921 4.38825 5.31614 4.18224L6.52447 0.463399Z" fill="#FFDE6A"/>
</svg>
