<svg width="16" height="16" viewBox="0 0 16 16" fill="none" xmlns="http://www.w3.org/2000/svg">
<path d="M7.52447 1.46337C7.67415 1.00271 8.32585 1.00271 8.47553 1.46337L9.68386 5.18221C9.75079 5.38822 9.94277 5.5277 10.1594 5.5277H14.0696C14.554 5.5277 14.7554 6.14751 14.3635 6.43221L11.2001 8.73058C11.0248 8.8579 10.9515 9.08358 11.0184 9.28959L12.2268 13.0084C12.3764 13.4691 11.8492 13.8521 11.4573 13.5674L8.29389 11.2691C8.11865 11.1418 7.88135 11.1418 7.70611 11.2691L4.54267 13.5674C4.15081 13.8521 3.62357 13.4691 3.77325 13.0084L4.98157 9.28959C5.04851 9.08358 4.97518 8.8579 4.79994 8.73058L1.6365 6.43221C1.24464 6.14751 1.44603 5.5277 1.93039 5.5277H5.84062C6.05723 5.5277 6.24921 5.38822 6.31614 5.18221L7.52447 1.46337Z" fill="#FFDE6A"/>
</svg>
