<svg width="16" height="16" viewBox="0 0 16 16" fill="none" xmlns="http://www.w3.org/2000/svg">
<path d="M7.52447 1.46349C7.67415 1.00284 8.32585 1.00284 8.47553 1.46349L9.68386 5.18233C9.75079 5.38834 9.94277 5.52782 10.1594 5.52782H14.0696C14.554 5.52782 14.7554 6.14763 14.3635 6.43233L11.2001 8.7307C11.0248 8.85802 10.9515 9.0837 11.0184 9.28972L12.2268 13.0086C12.3764 13.4692 11.8492 13.8523 11.4573 13.5676L8.29389 11.2692C8.11865 11.1419 7.88135 11.1419 7.70611 11.2692L4.54267 13.5676C4.15081 13.8523 3.62357 13.4692 3.77325 13.0086L4.98157 9.28971C5.04851 9.0837 4.97518 8.85802 4.79994 8.7307L1.6365 6.43233C1.24464 6.14763 1.44603 5.52782 1.93039 5.52782H5.84062C6.05723 5.52782 6.24921 5.38834 6.31614 5.18233L7.52447 1.46349Z" fill="#FFDE6A"/>
</svg>
