<svg width="16" height="16" viewBox="0 0 16 16" fill="none" xmlns="http://www.w3.org/2000/svg">
<g id="Star">
<path id="Star_2" d="M7.52447 1.46343C7.67415 1.00277 8.32585 1.00278 8.47553 1.46343L9.68386 5.18227C9.75079 5.38828 9.94277 5.52776 10.1594 5.52776H14.0696C14.554 5.52776 14.7554 6.14757 14.3635 6.43227L11.2001 8.73064C11.0248 8.85796 10.9515 9.08364 11.0184 9.28965L12.2268 13.0085C12.3764 13.4691 11.8492 13.8522 11.4573 13.5675L8.29389 11.2691C8.11865 11.1418 7.88135 11.1418 7.70611 11.2691L4.54267 13.5675C4.15081 13.8522 3.62357 13.4691 3.77325 13.0085L4.98157 9.28965C5.04851 9.08364 4.97518 8.85796 4.79994 8.73064L1.6365 6.43227C1.24464 6.14757 1.44603 5.52776 1.93039 5.52776H5.84062C6.05723 5.52776 6.24921 5.38828 6.31614 5.18227L7.52447 1.46343Z" fill="#FFDE6A"/>
</g>
</svg>
