<svg width="14" height="13" viewBox="0 0 14 13" fill="none" xmlns="http://www.w3.org/2000/svg">
<path d="M6.52447 0.463369C6.67415 0.00271392 7.32585 0.00271463 7.47553 0.46337L8.68386 4.18221C8.75079 4.38822 8.94277 4.5277 9.15938 4.5277H13.0696C13.554 4.5277 13.7554 5.14751 13.3635 5.43221L10.2001 7.73058C10.0248 7.8579 9.95149 8.08358 10.0184 8.28959L11.2268 12.0084C11.3764 12.4691 10.8492 12.8521 10.4573 12.5674L7.29389 10.2691C7.11865 10.1418 6.88135 10.1418 6.70611 10.2691L3.54267 12.5674C3.15081 12.8521 2.62357 12.4691 2.77325 12.0084L3.98157 8.28959C4.04851 8.08358 3.97518 7.8579 3.79994 7.73058L0.636501 5.43221C0.244644 5.14751 0.44603 4.5277 0.930392 4.5277H4.84062C5.05723 4.5277 5.24921 4.38822 5.31614 4.18221L6.52447 0.463369Z" fill="#FFDE6A"/>
</svg>
