<svg width="16" height="16" viewBox="0 0 16 16" fill="none" xmlns="http://www.w3.org/2000/svg">
<path d="M7.52447 1.4634C7.67415 1.00274 8.32585 1.00275 8.47553 1.4634L9.68386 5.18224C9.75079 5.38825 9.94277 5.52773 10.1594 5.52773H14.0696C14.554 5.52773 14.7554 6.14754 14.3635 6.43224L11.2001 8.73061C11.0248 8.85793 10.9515 9.08361 11.0184 9.28962L12.2268 13.0085C12.3764 13.4691 11.8492 13.8522 11.4573 13.5675L8.29389 11.2691C8.11865 11.1418 7.88135 11.1418 7.70611 11.2691L4.54267 13.5675C4.15081 13.8522 3.62357 13.4691 3.77325 13.0085L4.98157 9.28962C5.04851 9.08361 4.97518 8.85793 4.79994 8.73061L1.6365 6.43224C1.24464 6.14754 1.44603 5.52773 1.93039 5.52773H5.84062C6.05723 5.52773 6.24921 5.38825 6.31614 5.18224L7.52447 1.4634Z" fill="#FFDE6A"/>
</svg>
