<svg width="16" height="16" viewBox="0 0 16 16" fill="none" xmlns="http://www.w3.org/2000/svg">
<path d="M7.52447 1.46352C7.67415 1.00287 8.32585 1.00287 8.47553 1.46352L9.68386 5.18236C9.75079 5.38837 9.94277 5.52785 10.1594 5.52785H14.0696C14.554 5.52785 14.7554 6.14766 14.3635 6.43236L11.2001 8.73073C11.0248 8.85805 10.9515 9.08373 11.0184 9.28975L12.2268 13.0086C12.3764 13.4692 11.8492 13.8523 11.4573 13.5676L8.29389 11.2692C8.11865 11.1419 7.88135 11.1419 7.70611 11.2692L4.54267 13.5676C4.15081 13.8523 3.62357 13.4692 3.77325 13.0086L4.98157 9.28975C5.04851 9.08373 4.97518 8.85805 4.79994 8.73073L1.6365 6.43236C1.24464 6.14766 1.44603 5.52785 1.93039 5.52785H5.84062C6.05723 5.52785 6.24921 5.38837 6.31614 5.18236L7.52447 1.46352Z" fill="#FFDE6A"/>
</svg>
