<svg xmlns="http://www.w3.org/2000/svg" fill="none" viewBox="0 0 13 12" width="13" height="12">
<path fill="#e5e5e5" d="M 6.02447 0.463526 C 6.17415 0.00287056 6.82585 0.00286996 6.97553 0.463525 L 8.0716 3.83688 C 8.13854 4.04289 8.33051 4.18237 8.54713 4.18237 H 12.0941 C 12.5784 4.18237 12.7798 4.80218 12.388 5.08688 L 9.51843 7.17173 C 9.34318 7.29905 9.26985 7.52474 9.33679 7.73075 L 10.4329 11.1041 C 10.5825 11.5648 10.0553 11.9478 9.66344 11.6631 L 6.79389 9.57827 C 6.61865 9.45095 6.38135 9.45095 6.20611 9.57827 L 3.33656 11.6631 C 2.9447 11.9478 2.41746 11.5648 2.56714 11.1041 L 3.66321 7.73075 C 3.73015 7.52474 3.65682 7.29905 3.48157 7.17173 L 0.612025 5.08688 C 0.220169 4.80218 0.421556 4.18237 0.905918 4.18237 H 4.45287 C 4.66949 4.18237 4.86146 4.04289 4.9284 3.83688 L 6.02447 0.463526 Z" />
</svg>
